<?xml version="1.0" encoding="UTF-8"?> <svg xmlns="http://www.w3.org/2000/svg" xmlns:xlink="http://www.w3.org/1999/xlink" version="1.1" width="225px" height="224px" style="shape-rendering:geometricPrecision; text-rendering:geometricPrecision; image-rendering:optimizeQuality; fill-rule:evenodd; clip-rule:evenodd"><g><path style="opacity:0.098" fill="#3385fe" d="M 96.5,-0.5 C 106.5,-0.5 116.5,-0.5 126.5,-0.5C 177.951,9.11493 209.784,39.4483 222,90.5C 229.217,143.557 210.051,183.723 164.5,211C 152.277,216.908 139.61,221.075 126.5,223.5C 116.5,223.5 106.5,223.5 96.5,223.5C 42.5,212.833 10.1667,180.5 -0.5,126.5C -0.5,116.5 -0.5,106.5 -0.5,96.5C 10.1667,42.5 42.5,10.1667 96.5,-0.5 Z"></path></g><g><path style="opacity:1" fill="#9bbbfe" d="M 170.5,56.5 C 169.044,64.9889 165.044,72.1556 158.5,78C 156.167,79 153.833,80 151.5,81C 147.288,81.2215 143.288,81.3882 139.5,81.5C 138.25,81.4226 137.417,80.756 137,79.5C 135.595,74.9136 134.428,70.2469 133.5,65.5C 134.79,64.9423 135.623,63.9423 136,62.5C 136.333,60.5 136.667,58.5 137,56.5C 140.793,54.8043 143.959,52.3043 146.5,49C 151.5,49.6667 156.5,49.6667 161.5,49C 162.743,50.1545 163.743,51.4878 164.5,53C 166.879,53.7162 168.879,54.8828 170.5,56.5 Z"></path></g><g><path style="opacity:0.994" fill="#7fa9fe" d="M 170.5,56.5 C 171.221,60.6305 172.554,64.6305 174.5,68.5C 172.677,72.97 171.01,77.47 169.5,82C 165.982,84.195 162.482,86.3617 159,88.5C 154.847,87.6672 150.68,87.5005 146.5,88C 145.349,85.7997 143.682,84.2997 141.5,83.5C 140.833,82.8333 140.167,82.1667 139.5,81.5C 143.288,81.3882 147.288,81.2215 151.5,81C 153.833,80 156.167,79 158.5,78C 165.044,72.1556 169.044,64.9889 170.5,56.5 Z"></path></g><g><path style="opacity:1" fill="#f8faff" d="M 160.5,61.5 C 161.833,61.5 163.167,61.5 164.5,61.5C 161.737,67.9476 157.404,73.2809 151.5,77.5C 148.288,75.6367 146.288,72.97 145.5,69.5C 148.085,69.5677 150.418,70.0677 152.5,71C 155.002,67.6675 157.668,64.5008 160.5,61.5 Z"></path></g><g><path style="opacity:1" fill="#595b6a" d="M 125.5,63.5 C 125.526,64.8163 125.193,66.3163 124.5,68C 112.277,65.8352 102.944,69.8352 96.5,80C 91.9329,80.998 90.2663,83.498 91.5,87.5C 90.075,88.922 89.075,90.5887 88.5,92.5C 88.8229,98.69 88.4896,104.69 87.5,110.5C 84.9807,110.152 83.1474,108.819 82,106.5C 81.0532,96.7328 81.3866,87.0661 83,77.5C 87.2719,74.8065 90.7719,71.3065 93.5,67C 99.7337,63.1084 106.567,61.6084 114,62.5C 118.015,62.5012 121.849,62.8345 125.5,63.5 Z"></path></g><g><path style="opacity:0.999" fill="#444550" d="M 125.5,63.5 C 128.327,63.5838 130.994,64.2504 133.5,65.5C 134.428,70.2469 135.595,74.9136 137,79.5C 137.417,80.756 138.25,81.4226 139.5,81.5C 140.167,82.1667 140.833,82.8333 141.5,83.5C 141.666,91.1739 141.5,98.8406 141,106.5C 139.982,108.928 138.148,110.262 135.5,110.5C 134.672,104.013 134.172,97.346 134,90.5C 132.5,89 131,87.5 129.5,86C 118.264,84.3781 106.931,84.0448 95.5,85C 94.0161,85.6622 92.6828,86.4955 91.5,87.5C 90.2663,83.498 91.9329,80.998 96.5,80C 102.944,69.8352 112.277,65.8352 124.5,68C 125.193,66.3163 125.526,64.8163 125.5,63.5 Z"></path></g><g><path style="opacity:0.999" fill="#fde9d1" d="M 135.5,110.5 C 134.732,121.089 129.732,128.923 120.5,134C 121.527,137.844 123.527,141.011 126.5,143.5C 124.606,149.217 120.606,152.717 114.5,154C 109.263,154.974 104.596,153.807 100.5,150.5C 98.2947,148.637 96.9613,146.303 96.5,143.5C 99.6811,140.962 101.681,137.629 102.5,133.5C 104.857,133.663 107.19,133.497 109.5,133C 110.576,131.274 110.743,129.441 110,127.5C 104.409,124.663 100.409,120.329 98,114.5C 96.8267,107.563 96.16,100.563 96,93.5C 93.7585,91.2854 91.2585,90.9521 88.5,92.5C 89.075,90.5887 90.075,88.922 91.5,87.5C 92.6828,86.4955 94.0161,85.6622 95.5,85C 106.931,84.0448 118.264,84.3781 129.5,86C 131,87.5 132.5,89 134,90.5C 134.172,97.346 134.672,104.013 135.5,110.5 Z"></path></g><g><path style="opacity:0.998" fill="#fdf1e3" d="M 102.5,133.5 C 93.2675,128.727 88.2675,121.06 87.5,110.5C 88.4896,104.69 88.8229,98.69 88.5,92.5C 91.2585,90.9521 93.7585,91.2854 96,93.5C 96.16,100.563 96.8267,107.563 98,114.5C 100.409,120.329 104.409,124.663 110,127.5C 110.743,129.441 110.576,131.274 109.5,133C 107.19,133.497 104.857,133.663 102.5,133.5 Z"></path></g><g><path style="opacity:1" fill="#99bafe" d="M 96.5,143.5 C 96.9613,146.303 98.2947,148.637 100.5,150.5C 94.2563,151.681 89.0896,154.681 85,159.5C 83.7978,161.677 83.2978,164.011 83.5,166.5C 82.5,166.5 81.5,166.5 80.5,166.5C 77.659,165.759 75.659,164.092 74.5,161.5C 74.9248,154.13 78.5914,149.296 85.5,147C 89.1537,145.726 92.8204,144.56 96.5,143.5 Z"></path></g><g><path style="opacity:0.999" fill="#7fa9fe" d="M 126.5,143.5 C 133.613,145.256 140.113,148.256 146,152.5C 147.791,155.991 148.458,159.658 148,163.5C 131.94,174.244 114.44,177.411 95.5,173C 90.0272,171.684 85.0272,169.518 80.5,166.5C 81.5,166.5 82.5,166.5 83.5,166.5C 83.2978,164.011 83.7978,161.677 85,159.5C 89.0896,154.681 94.2563,151.681 100.5,150.5C 104.596,153.807 109.263,154.974 114.5,154C 120.606,152.717 124.606,149.217 126.5,143.5 Z"></path></g></svg> 