<?xml version="1.0" encoding="UTF-8"?> <svg xmlns="http://www.w3.org/2000/svg" xmlns:xlink="http://www.w3.org/1999/xlink" version="1.1" width="224px" height="224px" style="shape-rendering:geometricPrecision; text-rendering:geometricPrecision; image-rendering:optimizeQuality; fill-rule:evenodd; clip-rule:evenodd"><g><path style="opacity:0.098" fill="#99cb47" d="M 96.5,-0.5 C 106.5,-0.5 116.5,-0.5 126.5,-0.5C 180.5,10.1667 212.833,42.5 223.5,96.5C 223.5,106.5 223.5,116.5 223.5,126.5C 212.833,180.5 180.5,212.833 126.5,223.5C 116.5,223.5 106.5,223.5 96.5,223.5C 42.5,212.833 10.1667,180.5 -0.5,126.5C -0.5,116.5 -0.5,106.5 -0.5,96.5C 10.1667,42.5 42.5,10.1667 96.5,-0.5 Z"></path></g><g><path style="opacity:1" fill="#80c682" d="M 103.5,55.5 C 104.568,56.4345 105.901,56.7678 107.5,56.5C 107.51,61.638 105.51,65.8046 101.5,69C 94.2806,70.4286 86.9472,70.9286 79.5,70.5C 76.9663,65.297 76.9663,60.1303 79.5,55C 80.4162,54.6258 81.2496,54.1258 82,53.5C 87.3333,56.1667 92.6667,56.1667 98,53.5C 99.7255,54.464 101.559,55.1307 103.5,55.5 Z"></path></g><g><path style="opacity:0.997" fill="#6dbb68" d="M 113.5,75.5 C 111.565,76.1495 109.565,76.4828 107.5,76.5C 99.0817,76.8019 90.7483,76.4686 82.5,75.5C 81.7515,73.6675 80.7515,72.0009 79.5,70.5C 86.9472,70.9286 94.2806,70.4286 101.5,69C 105.51,65.8046 107.51,61.638 107.5,56.5C 105.901,56.7678 104.568,56.4345 103.5,55.5C 107.007,55.6933 110.34,55.0267 113.5,53.5C 114.478,53.9767 115.311,54.6433 116,55.5C 118.391,62.5898 117.558,69.2565 113.5,75.5 Z"></path></g><g><path style="opacity:1" fill="#feb74c" d="M 82.5,75.5 C 90.7483,76.4686 99.0817,76.8019 107.5,76.5C 107.703,78.3904 107.037,79.8904 105.5,81C 96.1193,81.7796 86.786,81.6129 77.5,80.5C 78.1439,77.856 79.8106,76.1894 82.5,75.5 Z"></path></g><g><path style="opacity:0.994" fill="#fda828" d="M 113.5,75.5 C 117.365,77.4483 118.365,80.4483 116.5,84.5C 115.643,85.4252 114.643,86.0919 113.5,86.5C 112.833,86.5 112.167,86.5 111.5,86.5C 101.932,85.1835 92.2649,85.1835 82.5,86.5C 79.4283,85.6987 77.7616,83.6987 77.5,80.5C 86.786,81.6129 96.1193,81.7796 105.5,81C 107.037,79.8904 107.703,78.3904 107.5,76.5C 109.565,76.4828 111.565,76.1495 113.5,75.5 Z"></path></g><g><path style="opacity:1" fill="#81c683" d="M 111.5,86.5 C 108.482,86.3354 105.482,86.502 102.5,87C 112.217,95.2857 119.884,105.119 125.5,116.5C 122.118,118.066 118.451,119.066 114.5,119.5C 112.781,130.031 113.448,140.364 116.5,150.5C 101.288,150.596 85.9546,150.429 70.5,150C 66.7377,149.283 63.4044,147.783 60.5,145.5C 56.9997,135.429 57.4997,125.429 62,115.5C 66.6913,104.31 73.5246,94.6437 82.5,86.5C 92.2649,85.1835 101.932,85.1835 111.5,86.5 Z"></path></g><g><path style="opacity:0.997" fill="#67bb6a" d="M 111.5,86.5 C 112.167,86.5 112.833,86.5 113.5,86.5C 121.063,94.6239 127.397,103.624 132.5,113.5C 130.574,115.293 128.241,116.293 125.5,116.5C 119.884,105.119 112.217,95.2857 102.5,87C 105.482,86.502 108.482,86.3354 111.5,86.5 Z"></path></g><g><path style="opacity:1" fill="#e5ebe5" d="M 96.5,103.5 C 98.5919,106.028 101.092,108.362 104,110.5C 106.108,113.138 105.941,115.472 103.5,117.5C 102.08,115.78 100.747,113.946 99.5,112C 93.5,111.667 92.1667,114 95.5,119C 103.155,119.309 106.321,123.143 105,130.5C 104.241,132.635 102.741,133.968 100.5,134.5C 99.5713,135.689 99.238,137.022 99.5,138.5C 98.1667,138.5 96.8333,138.5 95.5,138.5C 95.762,137.022 95.4287,135.689 94.5,134.5C 91.1442,132.782 89.6442,130.115 90,126.5C 90.5613,125.978 91.228,125.645 92,125.5C 93.5199,126.697 94.6866,128.197 95.5,130C 100.1,131.583 101.934,130.083 101,125.5C 99.1741,123.926 97.0075,123.093 94.5,123C 87.8528,118.025 87.8528,113.192 94.5,108.5C 95.3219,106.861 95.9886,105.195 96.5,103.5 Z"></path></g><g><path style="opacity:1" fill="#2f77f5" d="M 154.5,117.5 C 154.5,120.833 154.5,124.167 154.5,127.5C 148.187,133.478 141.854,139.478 135.5,145.5C 132.015,142.516 128.682,139.349 125.5,136C 124.207,135.51 122.873,135.343 121.5,135.5C 124.694,141.535 129.194,146.535 135,150.5C 141.325,145.008 147.492,139.342 153.5,133.5C 154.613,134.946 154.78,136.613 154,138.5C 149.589,151.445 140.755,159.445 127.5,162.5C 124.553,161.219 122.219,159.219 120.5,156.5C 119.154,154.463 117.82,152.463 116.5,150.5C 113.448,140.364 112.781,130.031 114.5,119.5C 118.451,119.066 122.118,118.066 125.5,116.5C 128.241,116.293 130.574,115.293 132.5,113.5C 134.792,112.376 136.958,111.043 139,109.5C 143.817,112.825 148.984,115.492 154.5,117.5 Z"></path></g><g><path style="opacity:0.998" fill="#3885f2" d="M 154.5,117.5 C 158.072,117.938 161.572,118.604 165,119.5C 170.062,142.204 162.229,158.371 141.5,168C 136.066,168.116 131.4,166.283 127.5,162.5C 140.755,159.445 149.589,151.445 154,138.5C 154.78,136.613 154.613,134.946 153.5,133.5C 154.685,132.143 155.685,130.643 156.5,129C 156.164,127.97 155.497,127.47 154.5,127.5C 154.5,124.167 154.5,120.833 154.5,117.5 Z"></path></g><g><path style="opacity:1" fill="#e4e7ee" d="M 154.5,127.5 C 155.497,127.47 156.164,127.97 156.5,129C 155.685,130.643 154.685,132.143 153.5,133.5C 147.492,139.342 141.325,145.008 135,150.5C 129.194,146.535 124.694,141.535 121.5,135.5C 122.873,135.343 124.207,135.51 125.5,136C 128.682,139.349 132.015,142.516 135.5,145.5C 141.854,139.478 148.187,133.478 154.5,127.5 Z"></path></g><g><path style="opacity:0.995" fill="#68bc6a" d="M 60.5,145.5 C 63.4044,147.783 66.7377,149.283 70.5,150C 85.9546,150.429 101.288,150.596 116.5,150.5C 117.82,152.463 119.154,154.463 120.5,156.5C 105.878,157.633 91.2113,157.8 76.5,157C 69.16,155.841 63.8267,152.008 60.5,145.5 Z"></path></g></svg> 