<?xml version="1.0" encoding="UTF-8"?> <svg xmlns="http://www.w3.org/2000/svg" xmlns:xlink="http://www.w3.org/1999/xlink" version="1.1" width="225px" height="224px" style="shape-rendering:geometricPrecision; text-rendering:geometricPrecision; image-rendering:optimizeQuality; fill-rule:evenodd; clip-rule:evenodd"><g><path style="opacity:0.098" fill="#ffad47" d="M 96.5,-0.5 C 106.5,-0.5 116.5,-0.5 126.5,-0.5C 177.951,9.11493 209.784,39.4483 222,90.5C 229.217,143.557 210.051,183.723 164.5,211C 152.277,216.908 139.61,221.075 126.5,223.5C 116.5,223.5 106.5,223.5 96.5,223.5C 42.5,212.833 10.1667,180.5 -0.5,126.5C -0.5,116.5 -0.5,106.5 -0.5,96.5C 10.1667,42.5 42.5,10.1667 96.5,-0.5 Z"></path></g><g><path style="opacity:1" fill="#a5db70" d="M 161.5,109.5 C 140.833,109.5 120.167,109.5 99.5,109.5C 100.15,107.565 100.483,105.565 100.5,103.5C 118.503,103.667 136.503,103.5 154.5,103C 154.309,97.3356 156.975,94.8356 162.5,95.5C 162.5,85.8333 162.5,76.1667 162.5,66.5C 157.213,67.8616 154.546,65.8616 154.5,60.5C 130.498,60.3334 106.498,60.5 82.5,61C 81.9002,64.4357 79.9002,66.269 76.5,66.5C 76.5,76.1667 76.5,85.8333 76.5,95.5C 77.552,95.3505 78.552,95.5172 79.5,96C 80.5323,97.6268 81.8656,98.7934 83.5,99.5C 81.3842,102.789 79.0509,105.956 76.5,109C 74.5273,109.495 72.5273,109.662 70.5,109.5C 70.816,94.755 70.4826,80.0884 69.5,65.5C 69.335,62.1501 69.5017,58.8168 70,55.5C 70.5,55 71,54.5 71.5,54C 103.167,53.3333 134.833,53.3333 166.5,54C 167.667,54.5 168.5,55.3333 169,56.5C 169.667,73.5 169.667,90.5 169,107.5C 166.894,109.291 164.394,109.958 161.5,109.5 Z"></path></g><g><path style="opacity:1" fill="#f5fbf0" d="M 100.5,103.5 C 100.167,102.167 99.8333,100.833 99.5,99.5C 116.513,99.8328 133.513,99.4995 150.5,98.5C 151.892,94.9402 154.392,92.6068 158,91.5C 158.831,84.4763 158.664,77.4763 157.5,70.5C 154.891,69.5569 152.891,67.8903 151.5,65.5C 129.508,64.3336 107.508,64.1669 85.5,65C 81.4711,69.3935 79.8044,74.7268 80.5,81C 79.4595,87.643 81.4595,92.8096 86.5,96.5C 85.8333,97.8333 84.8333,98.8333 83.5,99.5C 81.8656,98.7934 80.5323,97.6268 79.5,96C 78.552,95.5172 77.552,95.3505 76.5,95.5C 76.5,85.8333 76.5,76.1667 76.5,66.5C 79.9002,66.269 81.9002,64.4357 82.5,61C 106.498,60.5 130.498,60.3334 154.5,60.5C 154.546,65.8616 157.213,67.8616 162.5,66.5C 162.5,76.1667 162.5,85.8333 162.5,95.5C 156.975,94.8356 154.309,97.3356 154.5,103C 136.503,103.5 118.503,103.667 100.5,103.5 Z"></path></g><g><path style="opacity:1" fill="#9fdc6f" d="M 99.5,99.5 C 96.4403,89.5773 92.1069,88.5773 86.5,96.5C 81.4595,92.8096 79.4595,87.643 80.5,81C 79.8044,74.7268 81.4711,69.3935 85.5,65C 107.508,64.1669 129.508,64.3336 151.5,65.5C 152.891,67.8903 154.891,69.5569 157.5,70.5C 158.664,77.4763 158.831,84.4763 158,91.5C 154.392,92.6068 151.892,94.9402 150.5,98.5C 133.513,99.4995 116.513,99.8328 99.5,99.5 Z"></path></g><g><path style="opacity:1" fill="#fed3cc" d="M 69.5,65.5 C 70.4826,80.0884 70.816,94.755 70.5,109.5C 72.5273,109.662 74.5273,109.495 76.5,109C 79.0509,105.956 81.3842,102.789 83.5,99.5C 84.8333,98.8333 85.8333,97.8333 86.5,96.5C 92.1069,88.5773 96.4403,89.5773 99.5,99.5C 99.8333,100.833 100.167,102.167 100.5,103.5C 100.483,105.565 100.15,107.565 99.5,109.5C 98.3263,110.514 97.6596,111.847 97.5,113.5C 96.8333,113.5 96.5,113.833 96.5,114.5C 95.5116,115.795 94.5116,117.128 93.5,118.5C 92.4706,120.517 91.4706,122.517 90.5,124.5C 89.6618,124.842 89.3284,125.508 89.5,126.5C 88.1154,127.574 86.9487,128.907 86,130.5C 85.2266,135.252 85.3932,139.919 86.5,144.5C 86.5,152.833 86.5,161.167 86.5,169.5C 77.5822,169.817 68.7489,169.484 60,168.5C 59.6667,155.167 59.3333,141.833 59,128.5C 57.1778,120.889 55.6778,113.222 54.5,105.5C 56.423,92.7185 58.923,80.0519 62,67.5C 64.2276,65.8866 66.7276,65.22 69.5,65.5 Z"></path></g><g><path style="opacity:1" fill="#f9fdf5" d="M 114.5,70.5 C 122.051,69.0259 127.551,71.6926 131,78.5C 132.361,85.277 129.861,90.1104 123.5,93C 112.162,94.6606 106.996,89.8272 108,78.5C 109.305,75.0386 111.471,72.372 114.5,70.5 Z"></path></g><g><path style="opacity:1" fill="#cbecb0" d="M 154.5,76.5 C 150.833,76.5 147.167,76.5 143.5,76.5C 143.5,77.5 143.5,78.5 143.5,79.5C 147.167,79.5 150.833,79.5 154.5,79.5C 150.702,80.4834 146.702,80.8168 142.5,80.5C 142.5,78.8333 142.5,77.1667 142.5,75.5C 146.702,75.1832 150.702,75.5166 154.5,76.5 Z"></path></g><g><path style="opacity:1" fill="#fafef8" d="M 154.5,76.5 C 154.5,77.5 154.5,78.5 154.5,79.5C 150.833,79.5 147.167,79.5 143.5,79.5C 143.5,78.5 143.5,77.5 143.5,76.5C 147.167,76.5 150.833,76.5 154.5,76.5 Z"></path></g><g><path style="opacity:1" fill="#5bb31e" d="M 99.5,109.5 C 120.167,109.5 140.833,109.5 161.5,109.5C 160.976,111.306 160.309,112.972 159.5,114.5C 157.735,113.539 155.735,113.205 153.5,113.5C 152.167,113.5 150.833,113.5 149.5,113.5C 132.167,113.5 114.833,113.5 97.5,113.5C 97.6596,111.847 98.3263,110.514 99.5,109.5 Z"></path></g><g><path style="opacity:1" fill="#64c523" d="M 96.5,114.5 C 96.5,113.833 96.8333,113.5 97.5,113.5C 114.833,113.5 132.167,113.5 149.5,113.5C 148.519,116.421 147.685,119.421 147,122.5C 144.078,123.755 141.411,125.422 139,127.5C 124.77,123.256 110.603,118.922 96.5,114.5 Z"></path></g><g><path style="opacity:1" fill="#9cda6a" d="M 149.5,113.5 C 150.833,113.5 152.167,113.5 153.5,113.5C 152.04,117.72 150.873,122.053 150,126.5C 148.266,127.249 146.433,127.749 144.5,128C 143.505,129.834 142.005,131.001 140,131.5C 124.611,126.719 109.111,122.386 93.5,118.5C 94.5116,117.128 95.5116,115.795 96.5,114.5C 110.603,118.922 124.77,123.256 139,127.5C 141.411,125.422 144.078,123.755 147,122.5C 147.685,119.421 148.519,116.421 149.5,113.5 Z"></path></g><g><path style="opacity:0.999" fill="#67c524" d="M 153.5,113.5 C 155.735,113.205 157.735,113.539 159.5,114.5C 157.636,122.953 155.303,131.286 152.5,139.5C 150.579,140.641 148.579,140.808 146.5,140C 134.844,136.725 123.177,133.558 111.5,130.5C 106.106,128.261 100.439,126.594 94.5,125.5C 93.4324,124.566 92.099,124.232 90.5,124.5C 91.4706,122.517 92.4706,120.517 93.5,118.5C 109.111,122.386 124.611,126.719 140,131.5C 142.005,131.001 143.505,129.834 144.5,128C 146.433,127.749 148.266,127.249 150,126.5C 150.873,122.053 152.04,117.72 153.5,113.5 Z"></path></g><g><path style="opacity:0.998" fill="#fab7ad" d="M 94.5,125.5 C 100.439,126.594 106.106,128.261 111.5,130.5C 112.82,133.14 114.153,135.807 115.5,138.5C 109.043,142.441 103.209,141.441 98,135.5C 96.3554,132.378 94.8554,129.212 93.5,126C 93.7284,125.601 94.0618,125.435 94.5,125.5 Z"></path></g><g><path style="opacity:0.996" fill="#fbb8ae" d="M 89.5,126.5 C 91.9731,130.771 94.4731,135.104 97,139.5C 100.067,141.101 102.567,143.268 104.5,146C 104.095,146.945 103.428,147.612 102.5,148C 96.4924,149.378 91.1591,148.211 86.5,144.5C 85.3932,139.919 85.2266,135.252 86,130.5C 86.9487,128.907 88.1154,127.574 89.5,126.5 Z"></path></g></svg> 