<svg xmlns="http://www.w3.org/2000/svg" version="1.1" xmlns:xlink="http://www.w3.org/1999/xlink" width="512" height="512" x="0" y="0" viewBox="0 0 4000 4000" style="enable-background:new 0 0 512 512" xml:space="preserve"><g><path d="M2263.072 2812.092c-19.673 0-41.405-1.144-64.052-3.431-62.451-7.091-121.928-24.02-176.601-49.64-24.02 19.216-54.216 30.196-85.556 30.196h-354.118c-47.81 0-92.876-25.621-117.582-66.569l-67.141-111.817c-16.814-27.977-19.879-63.115-4.895-92.121 16.059-31.042 46.758-49.755 81.415-49.755h264.444c-24.248-54.902-39.804-114.608-45.294-176.83-4.347-48.497-2.745-96.536 5.033-143.431H836.993c-71.373 0-138.17 27.68-188.726 78.007-25.163 25.392-44.608 54.673-57.876 86.471-13.268 32.026-20.131 66.569-20.131 102.255v433.039c0 8.464 3.431 16.699 9.379 22.876 6.177 5.948 14.412 9.379 22.876 9.379H2217.32c25.278 0 45.774-20.497 45.751-45.775v-22.854zm-1061.438-132.68c-8.693 11.667-22.19 18.301-36.601 18.301h-274.51c-126.046 0-228.758-102.713-228.758-228.758 0-111.177 89.902-183.007 228.758-183.007 215.033 0 314.314 339.02 318.431 353.431 4.118 13.726 1.144 28.595-7.32 40.033zM1175.784 1325.163h721.275v435.098c0 24.706-10.523 48.954-28.595 66.111-68.17 65.196-118.268 144.346-147.092 230.817H836.993c-40.948 0-80.752 7.092-118.268 20.36l290.065-644.412c29.511-65.653 94.935-107.974 166.994-107.974z" fill="#000000" opacity="1" data-original="#000000"></path><path d="M1920.163 2697.712h-337.418c-15.784 0-30.882-8.464-39.118-22.189l-69.085-115.065h314.771c35.687 52.614 80.066 99.052 130.85 137.254zM890.523 2377.451c-51.265 0-137.255 11.896-137.255 91.503 0 75.696 61.559 137.255 137.255 137.255h210.252c-37.402-94.042-112.389-228.758-210.252-228.758zM616.013 3063.726c0 50.532 40.971 91.503 91.503 91.503h183.007c50.533 0 91.503-40.971 91.503-91.503v-91.503H616.013zM570.261 2057.189c0-50.464-41.039-91.503-91.503-91.503H341.503c-50.464 0-91.503 41.039-91.503 91.503s41.039 91.503 91.503 91.503h228.758zM2596.601 1894.771c-37.974-36.83-59.02-84.64-59.02-134.51v-640.98c0-151.438-123.072-274.51-274.51-274.51s-274.51 123.072-274.51 274.51v640.98c0 49.641-20.817 97.909-56.961 132.451-106.601 101.569-160.131 244.085-146.863 391.405 20.131 226.013 198.333 408.333 423.66 433.497 17.843 1.83 35.686 2.974 53.529 2.974 118.268 0 233.105-43.235 321.405-122.386 101.797-91.046 160.131-221.667 160.131-358.007.002-131.306-52.155-254.149-146.861-345.424zm-333.529 551.307c-113.464 0-205.882-92.418-205.882-205.882 0-97.68 68.627-179.804 160.131-200.85v-691.307c0-25.163 20.588-45.752 45.751-45.752 25.164 0 45.752 20.588 45.752 45.752v691.307c91.503 21.046 160.131 103.17 160.131 200.85-.001 113.464-92.419 205.882-205.883 205.882z" fill="#000000" opacity="1" data-original="#000000"></path><circle cx="2263.072" cy="2240.196" r="114.379" fill="#000000" opacity="1" data-original="#000000"></circle><path d="M3750 1782.68c0 25.163-20.588 45.752-45.752 45.752H3585.98l70.458 70.686a45.156 45.156 0 0 1 0 64.51c-8.922 8.922-20.588 13.497-32.255 13.497s-23.333-4.575-32.255-13.497l-135.196-135.196h-259.869c-6.405 35.458-20.359 68.17-40.261 96.765l177.516 177.745h164.248c25.164 0 45.751 20.588 45.751 45.752s-20.588 45.751-45.751 45.751h-72.745l93.562 93.562a45.156 45.156 0 0 1 0 64.51c-8.922 8.921-20.588 13.497-32.255 13.497s-23.333-4.575-32.255-13.497l-93.562-93.562v72.745c0 25.163-20.588 45.752-45.752 45.752s-45.752-20.588-45.752-45.752v-164.249l-177.745-177.516c-28.595 19.902-61.307 33.856-96.765 40.261v259.869l135.196 135.196a45.156 45.156 0 0 1 0 64.51c-8.922 8.922-20.588 13.497-32.255 13.497s-23.333-4.575-32.255-13.497l-70.686-70.458v118.268c0 25.163-20.588 45.751-45.752 45.751-25.163 0-45.751-20.588-45.751-45.751v-118.268l-70.686 70.458a45.156 45.156 0 0 1-64.51 0 45.156 45.156 0 0 1 0-64.51l135.196-135.196v-259.869c-116.896-21.503-205.882-124.216-205.882-247.516s88.987-226.013 205.882-247.516v-259.87l-135.196-135.196a45.156 45.156 0 0 1 0-64.51 45.156 45.156 0 0 1 64.51 0l70.686 70.458v-118.268c0-25.163 20.588-45.752 45.751-45.752 25.164 0 45.752 20.588 45.752 45.752v118.268l70.686-70.458a45.156 45.156 0 0 1 64.51 0 45.156 45.156 0 0 1 0 64.51l-135.196 135.196v259.869c35.458 6.405 68.17 20.359 96.765 40.261l177.745-177.516V1233.66c0-25.163 20.588-45.752 45.752-45.752s45.752 20.588 45.752 45.752v72.745l93.562-93.562a45.156 45.156 0 0 1 64.51 0 45.156 45.156 0 0 1 0 64.51l-93.562 93.562h72.745c25.164 0 45.751 20.588 45.751 45.752 0 25.163-20.588 45.752-45.751 45.752h-164.248l-177.516 177.745c19.902 28.595 33.856 61.307 40.261 96.765h259.869l135.196-135.196a45.156 45.156 0 0 1 64.51 0 45.156 45.156 0 0 1 0 64.51l-70.458 70.686h118.268c25.164-.001 45.752 20.587 45.752 45.751z" fill="#000000" opacity="1" data-original="#000000"></path></g></svg>