<?xml version="1.0" encoding="UTF-8"?> <svg xmlns="http://www.w3.org/2000/svg" xmlns:xlink="http://www.w3.org/1999/xlink" version="1.1" width="176px" height="192px" style="shape-rendering:geometricPrecision; text-rendering:geometricPrecision; image-rendering:optimizeQuality; fill-rule:evenodd; clip-rule:evenodd"><g><path style="opacity:0.997" fill="#ffdbd4" d="M 81.5,-0.5 C 85.5,-0.5 89.5,-0.5 93.5,-0.5C 117.511,10.4993 141.844,20.9993 166.5,31C 170.811,33.5054 173.811,37.0054 175.5,41.5C 175.5,49.8333 175.5,58.1667 175.5,66.5C 170.855,109.623 152.522,145.79 120.5,175C 112.099,181.586 103.099,187.086 93.5,191.5C 89.5,191.5 85.5,191.5 81.5,191.5C 46.9583,174.115 23.1249,147.115 10,110.5C 4.89185,96.0737 1.39185,81.407 -0.5,66.5C -0.5,58.1667 -0.5,49.8333 -0.5,41.5C 1.19869,36.9681 4.19869,33.4681 8.5,31C 33.0577,20.7676 57.3911,10.2676 81.5,-0.5 Z M 111.5,65.5 C 117.837,65.1657 121.504,68.1657 122.5,74.5C 121.946,76.6096 121.112,78.6096 120,80.5C 107.979,94.3533 96.1456,108.353 84.5,122.5C 80.9876,124.974 77.321,125.141 73.5,123C 65.1582,115.837 58.1582,107.67 52.5,98.5C 53.4552,92.0355 57.1219,89.2022 63.5,90C 68.6344,94.1329 73.4677,98.6329 78,103.5C 88.6888,90.3175 99.8555,77.6508 111.5,65.5 Z"></path></g></svg> 