<?xml version="1.0" encoding="UTF-8"?> <svg xmlns="http://www.w3.org/2000/svg" xmlns:xlink="http://www.w3.org/1999/xlink" version="1.1" width="188px" height="180px" style="shape-rendering:geometricPrecision; text-rendering:geometricPrecision; image-rendering:optimizeQuality; fill-rule:evenodd; clip-rule:evenodd"><g><path style="opacity:0.997" fill="#ffdbd4" d="M 88.5,-0.5 C 91.8333,-0.5 95.1667,-0.5 98.5,-0.5C 101.139,1.30904 103.306,3.64238 105,6.5C 110.964,23.0883 117.464,39.4216 124.5,55.5C 142.46,56.8228 160.46,57.9895 178.5,59C 182.766,60.1133 185.766,62.6133 187.5,66.5C 187.5,69.5 187.5,72.5 187.5,75.5C 186.31,77.3545 184.977,79.1879 183.5,81C 169.833,92 156.167,103 142.5,114C 147.865,131.627 152.532,149.46 156.5,167.5C 156.2,172.777 153.867,176.777 149.5,179.5C 146.167,179.5 142.833,179.5 139.5,179.5C 124.477,169.166 109.144,159.166 93.5,149.5C 78.1017,159.524 62.7683,169.524 47.5,179.5C 44.1667,179.5 40.8333,179.5 37.5,179.5C 33.1332,176.777 30.7999,172.777 30.5,167.5C 34.6967,149.713 39.3634,132.047 44.5,114.5C 29.4556,101.781 14.4556,89.1143 -0.5,76.5C -0.5,73.1667 -0.5,69.8333 -0.5,66.5C 1.08561,62.4227 4.08561,59.9227 8.5,59C 26.538,57.9652 44.538,56.7985 62.5,55.5C 69.5355,39.4216 76.0355,23.0883 82,6.5C 83.6941,3.64238 85.8607,1.30904 88.5,-0.5 Z"></path></g></svg> 