<?xml version="1.0" encoding="UTF-8"?> <svg xmlns="http://www.w3.org/2000/svg" xmlns:xlink="http://www.w3.org/1999/xlink" version="1.1" width="192px" height="192px" style="shape-rendering:geometricPrecision; text-rendering:geometricPrecision; image-rendering:optimizeQuality; fill-rule:evenodd; clip-rule:evenodd"><g><path style="opacity:0.997" fill="#ffdbd4" d="M 82.5,15.5 C 122.991,11.9877 152.158,28.3211 170,64.5C 183.58,106.427 172.413,139.927 136.5,165C 96.7844,184.188 61.951,177.688 32,145.5C 13.8292,119.698 10.4959,92.0312 22,62.5C 34.5113,36.8438 54.678,21.1772 82.5,15.5 Z M 122.5,66.5 C 127.209,68.3517 129.709,71.6851 130,76.5C 114.305,92.5291 98.3048,108.196 82,123.5C 75.3028,116.468 68.3028,109.802 61,103.5C 60.6978,98.5823 62.8645,94.9156 67.5,92.5C 72.6133,96.1103 77.2799,100.277 81.5,105C 82.1667,105.667 82.8333,105.667 83.5,105C 96.395,91.9375 109.395,79.1042 122.5,66.5 Z"></path></g></svg> 