<?xml version="1.0" encoding="UTF-8"?> <svg xmlns="http://www.w3.org/2000/svg" xmlns:xlink="http://www.w3.org/1999/xlink" version="1.1" width="140px" height="176px" style="shape-rendering:geometricPrecision; text-rendering:geometricPrecision; image-rendering:optimizeQuality; fill-rule:evenodd; clip-rule:evenodd"><g><path style="opacity:0.996" fill="#ffdbd4" d="M 59.5,-0.5 C 65.5,-0.5 71.5,-0.5 77.5,-0.5C 104.459,9.77079 114.293,29.1041 107,57.5C 96.9756,79.429 80.1423,87.929 56.5,83C 35.3713,74.2557 25.8713,58.4224 28,35.5C 31.6603,17.3496 42.1603,5.34957 59.5,-0.5 Z"></path></g><g><path style="opacity:0.997" fill="#ffdbd4" d="M 139.5,128.5 C 139.5,137.167 139.5,145.833 139.5,154.5C 136.167,165.167 129.167,172.167 118.5,175.5C 85.8333,175.5 53.1667,175.5 20.5,175.5C 9.39243,172.06 2.39243,164.726 -0.5,153.5C -0.5,145.5 -0.5,137.5 -0.5,129.5C 0.813901,117.729 4.64723,106.729 11,96.5C 18.2133,86.976 27.7133,83.1427 39.5,85C 45.0021,88.5855 50.6688,91.9188 56.5,95C 65.1667,98.3333 73.8333,98.3333 82.5,95C 88.3312,91.9188 93.9979,88.5855 99.5,85C 114.328,83.3316 125.161,89.165 132,102.5C 135.769,110.928 138.269,119.595 139.5,128.5 Z"></path></g></svg> 