<?xml version="1.0" encoding="UTF-8"?> <svg xmlns="http://www.w3.org/2000/svg" xmlns:xlink="http://www.w3.org/1999/xlink" version="1.1" width="360px" height="360px" style="shape-rendering:geometricPrecision; text-rendering:geometricPrecision; image-rendering:optimizeQuality; fill-rule:evenodd; clip-rule:evenodd"><g><path style="opacity:0.993" fill="#ffdbd4" d="M 160.5,-0.5 C 173.167,-0.5 185.833,-0.5 198.5,-0.5C 277.932,12.0959 329.765,56.7626 354,133.5C 355.922,142.286 357.756,150.952 359.5,159.5C 359.5,171.5 359.5,183.5 359.5,195.5C 348.708,273.137 306.375,325.304 232.5,352C 221.162,355.098 209.829,357.598 198.5,359.5C 186.833,359.5 175.167,359.5 163.5,359.5C 138.574,355.967 115.241,347.633 93.5,334.5C 92.9851,337.833 93.4851,341.166 95,344.5C 96.4872,350.837 94.6538,355.837 89.5,359.5C 86.1667,359.5 82.8333,359.5 79.5,359.5C 78.2073,357.704 76.7073,356.037 75,354.5C 70.7485,338.327 66.5819,322.16 62.5,306C 63.1086,301.446 65.4419,298.113 69.5,296C 86.5,295.333 103.5,295.333 120.5,296C 129.395,302.168 129.728,308.835 121.5,316C 117.886,316.945 114.219,317.612 110.5,318C 143.444,336.989 178.444,341.989 215.5,333C 273.482,317.018 311.982,280.518 331,223.5C 347.082,156.082 328.915,99.915 276.5,55C 229.596,20.8701 178.596,13.2034 123.5,32C 69.5246,54.9761 36.3579,95.1428 24,152.5C 23.0906,163.593 21.7573,174.593 20,185.5C 12.4177,192.488 5.58434,191.822 -0.5,183.5C -0.5,175.833 -0.5,168.167 -0.5,160.5C 9.81237,91.7198 46.479,42.5531 109.5,13C 126.091,6.43735 143.091,1.93735 160.5,-0.5 Z"></path></g><g><path style="opacity:0.996" fill="#03c3ce" d="M 163.5,63.5 C 212.776,59.7252 251.276,78.0585 279,118.5C 301,159.167 301,199.833 279,240.5C 251.725,281.059 213.558,299.226 164.5,295C 114.989,286.491 82.4889,258.324 67,210.5C 56.1411,162.413 68.9745,121.913 105.5,89C 122.7,75.5483 142.033,67.0483 163.5,63.5 Z"></path></g><g><path style="opacity:1" fill="#fefefe" d="M 176.5,105.5 C 181.825,105.107 185.991,107.107 189,111.5C 189.667,135.5 189.667,159.5 189,183.5C 174.196,199.305 159.029,214.805 143.5,230C 137.253,233.95 132.087,232.783 128,226.5C 127.163,222.705 127.496,219.039 129,215.5C 142.696,202.138 156.029,188.471 169,174.5C 169.333,153.5 169.667,132.5 170,111.5C 172.063,109.266 174.229,107.266 176.5,105.5 Z"></path></g></svg> 