<?xml version="1.0" encoding="UTF-8"?> <svg xmlns="http://www.w3.org/2000/svg" xmlns:xlink="http://www.w3.org/1999/xlink" version="1.1" width="400px" height="400px" style="shape-rendering:geometricPrecision; text-rendering:geometricPrecision; image-rendering:optimizeQuality; fill-rule:evenodd; clip-rule:evenodd"><g><path style="opacity:0.994" fill="#fefefe" d="M 179.5,-0.5 C 192.833,-0.5 206.167,-0.5 219.5,-0.5C 304.538,11.9461 361.705,58.6127 391,139.5C 394.818,152.765 397.651,166.099 399.5,179.5C 399.5,192.833 399.5,206.167 399.5,219.5C 387.054,304.538 340.387,361.705 259.5,391C 246.235,394.818 232.901,397.651 219.5,399.5C 206.167,399.5 192.833,399.5 179.5,399.5C 94.4616,387.054 37.295,340.387 8,259.5C 4.18196,246.235 1.34862,232.901 -0.5,219.5C -0.5,206.167 -0.5,192.833 -0.5,179.5C 11.9461,94.4616 58.6127,37.295 139.5,8C 152.765,4.18196 166.099,1.34862 179.5,-0.5 Z"></path></g><g><path style="opacity:1" fill="#d0d4d6" d="M 195.5,55.5 C 197.833,55.5 200.167,55.5 202.5,55.5C 202.5,58.1667 202.5,60.8333 202.5,63.5C 218.706,64.7059 227.706,73.3725 229.5,89.5C 225.818,89.6653 222.152,89.4986 218.5,89C 216.159,80.8238 210.825,75.9905 202.5,74.5C 202.168,85.1874 202.501,95.8541 203.5,106.5C 212.674,109 220.508,113.667 227,120.5C 233.169,131.327 232.835,141.994 226,152.5C 219.38,158.454 211.547,161.288 202.5,161C 200.607,163.303 198.607,165.47 196.5,167.5C 195.534,165.604 195.201,163.604 195.5,161.5C 181.931,159.439 173.098,151.773 169,138.5C 167.957,135.243 167.457,131.91 167.5,128.5C 171.5,128.5 175.5,128.5 179.5,128.5C 179.653,137.312 183.32,144.145 190.5,149C 192.134,149.494 193.801,149.66 195.5,149.5C 195.832,138.48 195.499,127.48 194.5,116.5C 186.499,114.419 179.665,110.419 174,104.5C 166.641,91.4005 168.141,79.5672 178.5,69C 183.606,65.4646 189.273,63.6313 195.5,63.5C 195.5,60.8333 195.5,58.1667 195.5,55.5 Z"></path></g><g><path style="opacity:1" fill="#fefefe" d="M 190.5,74.5 C 192.167,74.5 193.833,74.5 195.5,74.5C 195.666,84.5056 195.5,94.5056 195,104.5C 182.805,99.7859 179.138,91.4526 184,79.5C 185.965,77.4497 188.132,75.783 190.5,74.5 Z"></path></g><g><path style="opacity:1" fill="#fefefe" d="M 202.5,119.5 C 209.851,121.026 215.351,125.026 219,131.5C 219.966,143.369 214.466,149.369 202.5,149.5C 202.5,139.5 202.5,129.5 202.5,119.5 Z"></path></g><g><path style="opacity:1" fill="#ffdcd5" d="M 101.5,128.5 C 120.913,125.78 134.079,133.447 141,151.5C 143.519,178.311 131.353,191.811 104.5,192C 84.2086,185.916 75.7086,172.416 79,151.5C 82.684,139.984 90.184,132.317 101.5,128.5 Z"></path></g><g><path style="opacity:1" fill="#0cc3ce" d="M 280.5,128.5 C 307.328,126.501 320.828,138.835 321,165.5C 315.739,184.549 303.239,193.383 283.5,192C 263.263,186.047 254.763,172.547 258,151.5C 261.684,139.984 269.184,132.317 280.5,128.5 Z"></path></g><g><path style="opacity:1" fill="#05c3ce" d="M 101.5,198.5 C 119.821,196.329 134.154,202.829 144.5,218C 164.833,229.667 185.167,241.333 205.5,253C 215.019,260.664 216.852,269.83 211,280.5C 205.313,287.174 198.146,289.674 189.5,288C 176.037,280.767 162.703,273.267 149.5,265.5C 148.667,280.155 148.167,294.822 148,309.5C 147.626,310.416 147.126,311.25 146.5,312C 122.588,313.646 98.5878,313.98 74.5,313C 73.2986,312.097 72.4652,310.931 72,309.5C 71.3333,282.833 71.3333,256.167 72,229.5C 74.03,219.257 79.1966,211.09 87.5,205C 92.1373,202.511 96.804,200.344 101.5,198.5 Z"></path></g><g><path style="opacity:1" fill="#ffdcd5" d="M 282.5,198.5 C 303.485,197.235 317.985,206.235 326,225.5C 327.641,253.438 327.975,281.438 327,309.5C 326.5,311.333 325.333,312.5 323.5,313C 299.745,313.979 276.079,313.646 252.5,312C 251.874,311.25 251.374,310.416 251,309.5C 250.833,295.155 250.333,280.822 249.5,266.5C 241.037,271.134 232.704,275.967 224.5,281C 223.241,281.982 221.908,282.315 220.5,282C 224.924,272.732 224.09,263.898 218,255.5C 215.354,252.02 212.521,248.686 209.5,245.5C 224.5,236.667 239.5,227.833 254.5,219C 261.221,208.426 270.554,201.592 282.5,198.5 Z"></path></g></svg> 