<?xml version="1.0" encoding="UTF-8"?> <svg xmlns="http://www.w3.org/2000/svg" xmlns:xlink="http://www.w3.org/1999/xlink" version="1.1" width="368px" height="368px" style="shape-rendering:geometricPrecision; text-rendering:geometricPrecision; image-rendering:optimizeQuality; fill-rule:evenodd; clip-rule:evenodd"><g><path style="opacity:0.995" fill="#06c3ce" d="M 168.5,64.5 C 165.03,94.9381 152.364,120.771 130.5,142C 126.341,145.247 122.008,148.247 117.5,151C 114.833,151.667 112.167,151.667 109.5,151C 104.405,148.394 99.7382,145.228 95.5,141.5C 76.0232,122.555 63.8565,99.5546 59,72.5C 58.0722,65.0598 58.4055,57.7265 60,50.5C 77.6766,40.8167 95.3433,31.1501 113,21.5C 130.23,30.532 147.397,39.6987 164.5,49C 165.667,50.1667 166.833,51.3333 168,52.5C 168.499,56.4862 168.666,60.4862 168.5,64.5 Z"></path></g><g><path style="opacity:0.995" fill="#fefefe" d="M 328.5,235.5 C 309.431,251.728 290.765,268.561 272.5,286C 269.785,287.908 266.785,289.241 263.5,290C 230.5,290.667 197.5,290.667 164.5,290C 153.085,285.095 149.918,276.928 155,265.5C 156.873,263.291 159.04,261.458 161.5,260C 180.769,258.704 200.102,258.037 219.5,258C 225.714,256.928 230.381,253.761 233.5,248.5C 257.605,245.981 268.105,232.648 265,208.5C 262.051,198.552 255.884,191.385 246.5,187C 240.951,184.539 235.284,182.372 229.5,180.5C 228.501,167.183 228.167,153.85 228.5,140.5C 239.723,142.056 246.389,148.39 248.5,159.5C 253.5,159.5 258.5,159.5 263.5,159.5C 260.589,139.257 248.922,128.257 228.5,126.5C 228.5,123.167 228.5,119.833 228.5,116.5C 225.5,116.5 222.5,116.5 219.5,116.5C 219.5,119.833 219.5,123.167 219.5,126.5C 199.17,127.833 188.17,138.499 186.5,158.5C 186.17,169.674 190.504,178.507 199.5,185C 205.852,188.226 212.352,191.06 219,193.5C 219.5,203.161 219.666,212.828 219.5,222.5C 213.833,222.5 208.167,222.5 202.5,222.5C 200.558,218.061 199.558,213.394 199.5,208.5C 194.5,208.5 189.5,208.5 184.5,208.5C 184.118,213.367 184.785,218.034 186.5,222.5C 156.5,222.5 126.5,222.5 96.5,222.5C 87.5974,195.618 87.264,168.618 95.5,141.5C 99.7382,145.228 104.405,148.394 109.5,151C 112.167,151.667 114.833,151.667 117.5,151C 122.008,148.247 126.341,145.247 130.5,142C 152.364,120.771 165.03,94.9381 168.5,64.5C 221.476,46.0373 267.976,56.3707 308,95.5C 343.346,137.917 350.179,184.584 328.5,235.5 Z"></path></g><g><path style="opacity:1" fill="#fdfefe" d="M 132.5,63.5 C 140.33,62.4949 143.496,65.8283 142,73.5C 132.864,83.6371 123.364,93.4705 113.5,103C 111.167,103.667 108.833,103.667 106.5,103C 101.571,98.6161 96.7381,94.1161 92,89.5C 89.1069,80.7216 92.2735,77.2216 101.5,79C 104.016,81.6833 106.683,84.1833 109.5,86.5C 117.521,79.1457 125.188,71.479 132.5,63.5 Z"></path></g><g><path style="opacity:1" fill="#d0d4d6" d="M 233.5,248.5 C 235.215,244.034 235.882,239.367 235.5,234.5C 251.149,228.053 254.149,217.886 244.5,204C 239.526,200.679 234.193,198.179 228.5,196.5C 228.5,206.167 228.5,215.833 228.5,225.5C 225.574,224.302 222.574,223.302 219.5,222.5C 219.666,212.828 219.5,203.161 219,193.5C 212.352,191.06 205.852,188.226 199.5,185C 190.504,178.507 186.17,169.674 186.5,158.5C 188.17,138.499 199.17,127.833 219.5,126.5C 219.5,123.167 219.5,119.833 219.5,116.5C 222.5,116.5 225.5,116.5 228.5,116.5C 228.5,119.833 228.5,123.167 228.5,126.5C 248.922,128.257 260.589,139.257 263.5,159.5C 258.5,159.5 253.5,159.5 248.5,159.5C 246.389,148.39 239.723,142.056 228.5,140.5C 228.167,153.85 228.501,167.183 229.5,180.5C 235.284,182.372 240.951,184.539 246.5,187C 255.884,191.385 262.051,198.552 265,208.5C 268.105,232.648 257.605,245.981 233.5,248.5 Z"></path></g><g><path style="opacity:1" fill="#fefefe" d="M 214.5,140.5 C 216.167,140.5 217.833,140.5 219.5,140.5C 219.5,152.833 219.5,165.167 219.5,177.5C 203.289,172.414 198.456,162.081 205,146.5C 207.843,143.837 211.009,141.837 214.5,140.5 Z"></path></g><g><path style="opacity:1" fill="#fefefe" d="M 235.5,234.5 C 233.42,231.358 231.086,228.358 228.5,225.5C 228.5,215.833 228.5,206.167 228.5,196.5C 234.193,198.179 239.526,200.679 244.5,204C 254.149,217.886 251.149,228.053 235.5,234.5 Z"></path></g><g><path style="opacity:1" fill="#d1d4d6" d="M 202.5,222.5 C 197.167,222.5 191.833,222.5 186.5,222.5C 184.785,218.034 184.118,213.367 184.5,208.5C 189.5,208.5 194.5,208.5 199.5,208.5C 199.558,213.394 200.558,218.061 202.5,222.5 Z"></path></g><g><path style="opacity:0.994" fill="#57636c" d="M 64.5,238.5 C 63.1729,264.264 63.1729,289.931 64.5,315.5C 66.2633,336.889 56.4299,346.222 35,343.5C 30.1667,343.333 25.3333,343.167 20.5,343C 13.738,341.237 9.23799,337.07 7,330.5C 6.33333,295.167 6.33333,259.833 7,224.5C 9.3771,217.455 14.2104,213.288 21.5,212C 31.9072,211.074 42.2405,211.408 52.5,213C 62.8209,218.35 66.8209,226.85 64.5,238.5 Z"></path></g><g><path style="opacity:0.999" fill="#fedbd5" d="M 96.5,222.5 C 126.5,222.5 156.5,222.5 186.5,222.5C 191.833,222.5 197.167,222.5 202.5,222.5C 208.167,222.5 213.833,222.5 219.5,222.5C 222.574,223.302 225.574,224.302 228.5,225.5C 231.086,228.358 233.42,231.358 235.5,234.5C 235.882,239.367 235.215,244.034 233.5,248.5C 230.381,253.761 225.714,256.928 219.5,258C 200.102,258.037 180.769,258.704 161.5,260C 159.04,261.458 156.873,263.291 155,265.5C 149.918,276.928 153.085,285.095 164.5,290C 197.5,290.667 230.5,290.667 263.5,290C 266.785,289.241 269.785,287.908 272.5,286C 290.765,268.561 309.431,251.728 328.5,235.5C 339.779,232.114 349.279,234.781 357,243.5C 361.611,251.528 361.611,259.528 357,267.5C 331.854,291.644 306.354,315.477 280.5,339C 277.446,341.194 274.112,342.861 270.5,344C 250.369,345.13 230.202,345.63 210,345.5C 191.833,345.333 173.667,345.167 155.5,345C 142.138,345.205 129.138,343.205 116.5,339C 99.2593,330.878 81.926,323.045 64.5,315.5C 63.1729,289.931 63.1729,264.264 64.5,238.5C 72.9348,228.949 83.6015,223.616 96.5,222.5 Z"></path></g></svg> 